<?xml version="1.0" standalone="no"?>
<!DOCTYPE svg PUBLIC "-//W3C//DTD SVG 20010904//EN"
 "http://www.w3.org/TR/2001/REC-SVG-20010904/DTD/svg10.dtd">
<svg version="1.0" xmlns="http://www.w3.org/2000/svg"
 width="512.000000pt" height="512.000000pt" viewBox="0 0 512.000000 512.000000"
 preserveAspectRatio="xMidYMid meet">
<metadata>
Created by potrace 1.11, written by Peter Selinger 2001-2013
</metadata>
<g transform="translate(0.000000,512.000000) scale(0.100000,-0.100000)"
fill="#000000" stroke="none">
<path d="M968 4469 c-119 -28 -230 -121 -287 -239 l-36 -75 0 -1595 0 -1595
36 -75 c60 -127 173 -217 302 -241 34 -6 623 -8 1613 -7 l1559 3 75 36 c114
55 189 139 229 255 19 58 20 80 18 1639 -3 1711 1 1585 -54 1690 -24 46 -95
125 -112 125 -6 0 -11 4 -11 8 0 13 -100 60 -151 71 -56 13 -3128 13 -3181 0z"/>
</g>
</svg>
